<svg id="Icons" xmlns="http://www.w3.org/2000/svg" viewBox="0 0 512 512"><defs><style>.cls-5{fill:#dd8c29}.cls-6{fill:#efb732}.cls-7{fill:#962a11}.cls-8{fill:#fff}.cls-12{fill:#c44a1a}.cls-15{fill:#fb626e}.cls-16{fill:#decee5}.cls-17{fill:#f4e6f4}.cls-18{fill:#27e090}</style></defs><circle cx="256" cy="256" r="255.98" style="fill:#14a36d"/><path d="M512 255.76A255.63 255.63 0 0 0 408.56 50.44C295-33.81 134.69-10.08 50.44 103.44a254.76 254.76 0 0 0-49.93 136 76.89 76.89 0 0 1 14.24 6.88c23.84 14.74 42 41.9 69.91 44.44 19.15 1.75 37.29-9.24 51.1-22.62s24.87-29.51 39.4-42.12a112.53 112.53 0 0 1 157.7 10c14.17 15.89 26.53 37.44 47.68 40 28.75 3.44 51.22-31.63 80-28.95 9.3.87 17.72 5.66 26.73 8a54.5 54.5 0 0 0 24.73.69z" style="fill:#15be79"/><path d="M409.28 233.87v175A21.33 21.33 0 0 1 388 430.2h-72.38a21.34 21.34 0 0 1-21.34-21.34v-175a29.26 29.26 0 0 1 22-28.36 14.93 14.93 0 0 0 11.21-13.65l4.2-77.35h-.59a6.48 6.48 0 0 1-6.3-8l4.35-18.72a6.48 6.48 0 0 1 6.3-5h32.65a6.49 6.49 0 0 1 6.31 5l4.35 18.72a6.49 6.49 0 0 1-6.31 8h-.6l4.21 77.35a14.87 14.87 0 0 0 11.21 13.65 29.25 29.25 0 0 1 22.01 28.37z" style="fill:#6b250c"/><path d="M409.28 233.87v175A21.33 21.33 0 0 1 388 430.2h-52.27a21.34 21.34 0 0 1-21.32-21.34V240.47a22 22 0 0 1 22-22 14.92 14.92 0 0 0 11.21-13.65l4.19-95.82a.25.25 0 0 0-.25-.24 6.73 6.73 0 0 1-6.56-8.26l4.1-17.63h19a6.49 6.49 0 0 1 6.31 5l4.35 18.72a6.49 6.49 0 0 1-6.31 8h-.6l4.21 77.35a14.87 14.87 0 0 0 11.21 13.65 29.25 29.25 0 0 1 22.01 28.28z" style="fill:#7a2b13"/><path class="cls-5" d="M381.18 78.82v3.62a5.39 5.39 0 0 1-5.39 5.4h-48a5.4 5.4 0 0 1-5.4-5.4v-3.62a5.4 5.4 0 0 1 5.4-5.41h48a5.39 5.39 0 0 1 5.39 5.41z"/><path class="cls-6" d="M381.18 78.82v3.62a5.39 5.39 0 0 1-5.39 5.4h-36.32a5.39 5.39 0 0 1-5.39-5.4v-3.62a5.39 5.39 0 0 1 5.39-5.41h36.32a5.39 5.39 0 0 1 5.39 5.41z"/><ellipse class="cls-7" cx="378.88" cy="219.71" rx="10.72" ry="17.94" transform="rotate(-45 378.878 219.713)"/><ellipse class="cls-7" cx="396.58" cy="249.53" rx="7.62" ry="12.34" transform="rotate(-11.78 396.445 249.466)"/><path class="cls-7" d="M314.41 395.55h43.2a6.65 6.65 0 0 1 6.65 6.65 6.65 6.65 0 0 1-6.65 6.65h-43.2v-13.3z"/><rect class="cls-7" x="373.39" y="395.55" width="24.71" height="13.31" rx="6.65"/><path class="cls-7" d="M367.19 125.57a5.57 5.57 0 0 1 5.56 5.27l2.16 39.78a5.57 5.57 0 0 1-5.56 5.88h-2.16a5.57 5.57 0 0 1-5.57-5.57v-39.79a5.57 5.57 0 0 1 5.57-5.57z"/><path class="cls-6" d="M409.28 277.28v93.37h-115v-93.37l20.13-11.33 37.37-21.03 57.5 32.36z"/><path class="cls-5" d="M314.41 265.95v104.7h-20.13v-93.37l20.13-11.33z"/><path class="cls-8" d="M409.28 298.82h-22.86c-5.55-14.88-19-25.37-34.64-25.37s-29.09 10.49-34.64 25.37h-22.86v30.5h22.86c5.55 14.87 19 25.36 34.64 25.36s29.09-10.49 34.64-25.36h22.86z"/><path style="fill:#ebd9ea" d="M294.28 298.82h20.13v30.5h-20.13z"/><ellipse cx="351.78" cy="314.07" rx="27.09" ry="29.45" style="fill:#f39e22"/><ellipse cx="351.78" cy="314.07" rx="20.23" ry="21.98" style="fill:#f9c744"/><rect class="cls-12" x="340.42" y="301.39" width="22.47" height="5.96" rx="2.98"/><rect class="cls-12" x="333.04" y="312.13" width="37.23" height="5.96" rx="2.98"/><path d="M284.66 189.75A25.91 25.91 0 0 1 252.9 208a304.3 304.3 0 0 0-79.5-10.17A304.64 304.64 0 0 0 93.73 208a25.88 25.88 0 0 1-13.56-50 355.93 355.93 0 0 1 93.23-12 355.83 355.83 0 0 1 93 12 25.9 25.9 0 0 1 18.23 31.74z" style="fill:#e52e44"/><path d="M283.75 173.51A25.9 25.9 0 0 1 252.9 189a304.3 304.3 0 0 0-79.5-10.17A304.64 304.64 0 0 0 93.73 189a25.84 25.84 0 0 1-30.85-15.49 25.81 25.81 0 0 1 17.29-15.49 355.93 355.93 0 0 1 93.23-12 355.83 355.83 0 0 1 93 12 25.81 25.81 0 0 1 17.35 15.49z" style="fill:#fa4654"/><ellipse class="cls-15" cx="208.85" cy="160.69" rx="9.09" ry="18.19" transform="rotate(-82.74 208.853 160.688)"/><ellipse class="cls-15" cx="245.03" cy="165.3" rx="6.7" ry="13.41" transform="rotate(-82.74 245.037 165.296)"/><path class="cls-16" d="M203.32 196.61v58.2a23.83 23.83 0 0 1-23.83 23.83h-12.36a23.83 23.83 0 0 1-23.83-23.83v-58.2a3.6 3.6 0 0 1 3.6-3.6h4.82a3.6 3.6 0 0 1 3.57 3.1l7.52 54a10.6 10.6 0 0 0 21 0l7.52-54a3.6 3.6 0 0 1 3.57-3.1h4.82a3.6 3.6 0 0 1 3.6 3.6z"/><path class="cls-17" d="M203.32 203v51.84a23.83 23.83 0 0 1-23.83 23.83h-12.36a23.83 23.83 0 0 1-23.83-23.83V203h1.63c2.36 0 4.36 1.32 4.68 3.1l9.9 54a10.18 10.18 0 0 0 4.65 6.54 16.73 16.73 0 0 0 9.15 2.6c7 0 12.84-3.89 13.8-9.14l9.9-54c.32-1.78 2.32-3.1 4.68-3.1z"/><path class="cls-16" d="M187.82 415.71a14.51 14.51 0 0 1-14.51 14.49h-.85a14.5 14.5 0 0 1-13.63-15.35l8.3-136.18h12.36l.43 6.95 7.87 129.23c.02.27.03.57.03.86z"/><path class="cls-17" d="M187.82 415.71a14.52 14.52 0 0 1-15.35 14.47 14.38 14.38 0 0 1-2.16-7.86l2.27-129.19a7.68 7.68 0 0 1 7.35-7.53l7.87 129.23c.01.29.02.59.02.88z"/><ellipse class="cls-8" cx="179.4" cy="369.71" rx="4.64" ry="14.37" transform="rotate(-2.1 179.076 369.239)"/><ellipse class="cls-8" cx="180.36" cy="395.94" rx="3.28" ry="8.83" transform="rotate(-2.1 180.233 395.458)"/><path class="cls-18" d="M113.89 137.57a3.79 3.79 0 0 1-3.78-3.79c0-8.3 8.59-11.88 16.18-15 5.66-2.36 11.52-4.8 11.52-8.06s-5.81-5.72-11.52-8.13c-7.59-3.17-16.18-6.75-16.18-15.06s8.59-11.89 16.18-15c5.66-2.37 11.52-4.82 11.52-8.08a3.79 3.79 0 0 1 7.57 0c0 8.3-8.6 11.89-16.18 15.06-5.66 2.36-11.52 4.81-11.52 8.07s5.85 5.71 11.52 8.08c7.58 3.16 16.18 6.75 16.18 15.06s-8.6 11.88-16.18 15c-5.67 2.36-11.52 4.81-11.52 8.06a3.79 3.79 0 0 1-3.79 3.79zM169.46 132.57a3.79 3.79 0 0 1-3.78-3.79c0-8.3 8.59-11.88 16.17-15 5.67-2.36 11.53-4.8 11.53-8.06s-5.86-5.71-11.53-8.08c-7.58-3.17-16.17-6.75-16.17-15.06s8.59-11.89 16.17-15c5.67-2.37 11.53-4.82 11.53-8.08a3.79 3.79 0 0 1 7.57 0c0 8.3-8.6 11.89-16.18 15.06-5.67 2.36-11.53 4.81-11.53 8.07s5.86 5.71 11.53 8.08c7.58 3.16 16.18 6.75 16.18 15.06s-8.6 11.88-16.18 15c-5.67 2.36-11.53 4.81-11.53 8.06a3.79 3.79 0 0 1-3.78 3.74zM225 137.57a3.79 3.79 0 0 1-3.79-3.79c0-8.3 8.6-11.88 16.18-15 5.67-2.36 11.53-4.8 11.53-8.06s-5.86-5.71-11.53-8.08c-7.58-3.17-16.18-6.75-16.18-15.06s8.6-11.89 16.18-15c5.7-2.47 11.61-4.92 11.61-8.18a3.78 3.78 0 0 1 7.56 0c0 8.3-8.59 11.89-16.17 15.06-5.67 2.36-11.53 4.81-11.53 8.07s5.86 5.71 11.53 8.08c7.58 3.16 16.17 6.75 16.17 15.06s-8.59 11.88-16.17 15c-5.67 2.36-11.53 4.81-11.53 8.06a3.79 3.79 0 0 1-3.86 3.84z"/></svg>